<svg width="32" height="32" viewBox="0 0 32 32" fill="none" xmlns="http://www.w3.org/2000/svg">
  <!-- Gradient Background -->
  <defs>
    <linearGradient id="bgGradient" x1="0%" y1="0%" x2="100%" y2="100%">
      <stop offset="0%" style="stop-color:#2563eb;stop-opacity:1" />
      <stop offset="100%" style="stop-color:#1d4ed8;stop-opacity:1" />
    </linearGradient>
    <linearGradient id="bookGradient" x1="0%" y1="0%" x2="100%" y2="100%">
      <stop offset="0%" style="stop-color:#ffffff;stop-opacity:1" />
      <stop offset="100%" style="stop-color:#f8fafc;stop-opacity:1" />
    </linearGradient>
    <filter id="shadow" x="-20%" y="-20%" width="140%" height="140%">
      <feDropShadow dx="0" dy="1" stdDeviation="1" flood-color="#000000" flood-opacity="0.2"/>
    </filter>
  </defs>
  
  <!-- Background circle with gradient -->
  <circle cx="16" cy="16" r="15" fill="url(#bgGradient)" filter="url(#shadow)"/>
  
  <!-- Multiple books stack -->
  <!-- Book 1 (back) -->
  <rect x="9" y="8" width="11" height="16" rx="1" fill="#dbeafe" stroke="#93c5fd" stroke-width="0.3"/>
  
  <!-- Book 2 (middle) -->
  <rect x="8" y="7" width="11" height="16" rx="1" fill="url(#bookGradient)" stroke="#2563eb" stroke-width="0.4"/>
  
  <!-- Book 3 (front) -->
  <rect x="7" y="6" width="11" height="16" rx="1" fill="#ffffff" stroke="#1d4ed8" stroke-width="0.5"/>
  
  <!-- Book details on front book -->
  <line x1="9" y1="9" x2="16" y2="9" stroke="#94a3b8" stroke-width="0.4"/>
  <line x1="9" y1="11" x2="15" y2="11" stroke="#94a3b8" stroke-width="0.4"/>
  <line x1="9" y1="13" x2="14" y2="13" stroke="#94a3b8" stroke-width="0.4"/>
  
  <!-- Stylized "C" for Chris -->
  <path d="M12 16 C10 16, 9 17, 9 18.5 C9 20, 10 21, 12 21" stroke="#2563eb" stroke-width="1.5" fill="none" stroke-linecap="round"/>
  
  <!-- Small decorative dots -->
  <circle cx="22" cy="10" r="1" fill="#60a5fa" opacity="0.6"/>
  <circle cx="24" cy="14" r="0.8" fill="#93c5fd" opacity="0.8"/>
  <circle cx="10" cy="25" r="0.8" fill="#dbeafe" opacity="0.7"/>
</svg>
